<?xml version="1.0" ?><svg width="50" height="50" id="Outline" viewBox="0 0 512 512" xmlns="http://www.w3.org/2000/svg"><defs><style>.cls-1{fill:#55BD91;}</style></defs><path class="cls-1" d="M360,170.12,215.28,317.64l-64-65.22a11.34,11.34,0,0,0-16.19,15.88l72.17,73.58a11.33,11.33,0,0,0,17.45-1.55c.14-.12.28-.24.41-.37l151-154A11.34,11.34,0,0,0,360,170.12Z"/><path class="cls-1" d="M377.75,58.65H133.47a74.9,74.9,0,0,0-74.82,74.82V377.75a74.9,74.9,0,0,0,74.82,74.81H377.75a74.9,74.9,0,0,0,74.81-74.81V133.47A74.9,74.9,0,0,0,377.75,58.65Zm52.13,319.1a52.18,52.18,0,0,1-52.13,52.13H133.47a52.19,52.19,0,0,1-52.14-52.13V133.47a52.2,52.2,0,0,1,52.14-52.14H377.75a52.19,52.19,0,0,1,52.13,52.14Z"/></svg>